<svg width="433" height="167" viewBox="0 0 433 167" fill="none" xmlns="http://www.w3.org/2000/svg">
<rect x="0.5" y="0.5" width="432" height="142" rx="5.5" stroke="#CCD0D7" stroke-dasharray="8 8"/>
<path d="M220.5 30H204.5C203.439 30 202.422 30.4214 201.672 31.1716C200.921 31.9217 200.5 32.9391 200.5 34V54M200.5 54V58C200.5 59.0609 200.921 60.0783 201.672 60.8284C202.422 61.5786 203.439 62 204.5 62H228.5C229.561 62 230.578 61.5786 231.328 60.8284C232.079 60.0783 232.5 59.0609 232.5 58V50M200.5 54L209.672 44.828C210.422 44.0781 211.439 43.6569 212.5 43.6569C213.561 43.6569 214.578 44.0781 215.328 44.828L220.5 50M232.5 42V50M232.5 50L229.328 46.828C228.578 46.0781 227.561 45.6569 226.5 45.6569C225.439 45.6569 224.422 46.0781 223.672 46.828L220.5 50M220.5 50L224.5 54M228.5 30H236.5M232.5 26V34M220.5 38H220.52" stroke="#B3B8C4" stroke-width="2" stroke-linecap="round" stroke-linejoin="round"/>
<rect x="105" y="74" width="105" height="21" rx="8" fill="white"/>
<path d="M114.682 89.21C114.103 89.21 113.543 89.14 113.002 89C112.461 88.8693 112.003 88.6827 111.63 88.44V84.716H114.738V85.864H113.058V87.726C113.459 87.9687 114.001 88.09 114.682 88.09C115.578 88.09 116.259 87.8427 116.726 87.348C117.202 86.8533 117.44 86.1347 117.44 85.192C117.44 84.2493 117.197 83.554 116.712 83.106C116.236 82.658 115.452 82.434 114.36 82.434C113.865 82.434 113.38 82.4853 112.904 82.588C112.428 82.6813 112.027 82.8353 111.7 83.05V81.916C112.064 81.7107 112.493 81.5567 112.988 81.454C113.483 81.3513 114.015 81.3 114.584 81.3C115.984 81.3 117.053 81.6407 117.79 82.322C118.527 83.0033 118.896 83.96 118.896 85.192C118.896 86.4333 118.527 87.4133 117.79 88.132C117.062 88.8507 116.026 89.21 114.682 89.21ZM115.989 80.404C115.588 80.404 115.299 80.306 115.121 80.11C114.935 79.9047 114.841 79.6013 114.841 79.2V78.472H116.129V79.032C116.129 79.1907 116.162 79.298 116.227 79.354C116.283 79.41 116.395 79.438 116.563 79.438H119.867V80.404H115.989ZM120.021 81.51H121.449L122.807 86.998L124.431 81.51H125.523L127.133 86.998L128.505 81.51H129.933L127.847 89H126.643L124.977 83.372L123.297 89H122.093L120.021 81.51ZM133.424 89C132.966 89 132.616 88.874 132.374 88.622C132.14 88.3607 132.024 87.9967 132.024 87.53V82.154C132.024 81.4727 131.898 80.9407 131.646 80.558C131.394 80.1753 130.988 79.8673 130.428 79.634V78.472H134.838V79.676H132.332C132.714 79.928 132.994 80.264 133.172 80.684C133.358 81.104 133.452 81.608 133.452 82.196V87.138C133.452 87.39 133.503 87.5673 133.606 87.67C133.708 87.7633 133.886 87.81 134.138 87.81H134.642V89H133.424ZM135.959 81.51H137.387V84.814L141.013 81.51H142.679L140.635 83.372C141.4 83.568 141.932 83.8807 142.231 84.31C142.539 84.7393 142.693 85.3133 142.693 86.032V89H141.265V86.116C141.265 85.556 141.148 85.1313 140.915 84.842C140.691 84.5527 140.299 84.3473 139.739 84.226L137.387 86.368V89H135.959V81.51ZM146.953 89.21C146.123 89.21 145.46 89.0047 144.965 88.594C144.48 88.174 144.237 87.5813 144.237 86.816C144.237 86.06 144.508 85.458 145.049 85.01C145.6 84.562 146.342 84.338 147.275 84.338C148.199 84.338 149.03 84.5107 149.767 84.856V84.282C149.767 83.638 149.59 83.1713 149.235 82.882C148.89 82.5833 148.311 82.434 147.499 82.434C147.051 82.434 146.613 82.476 146.183 82.56C145.754 82.644 145.381 82.7607 145.063 82.91V81.79C145.353 81.65 145.745 81.5333 146.239 81.44C146.743 81.3467 147.233 81.3 147.709 81.3C148.876 81.3 149.749 81.566 150.327 82.098C150.906 82.63 151.195 83.3487 151.195 84.254V89H149.767V85.99C149.086 85.6447 148.307 85.472 147.429 85.472C146.823 85.472 146.375 85.584 146.085 85.808C145.805 86.032 145.665 86.368 145.665 86.816C145.665 87.6653 146.211 88.09 147.303 88.09C147.639 88.09 147.933 88.0433 148.185 87.95V89.056C147.849 89.1587 147.439 89.21 146.953 89.21ZM156.339 89.21C155.219 89.21 154.337 88.8927 153.693 88.258C153.059 87.6233 152.741 86.69 152.741 85.458C152.741 84.5993 152.905 83.8573 153.231 83.232C153.567 82.6067 154.043 82.1307 154.659 81.804C155.275 81.468 156.008 81.3 156.857 81.3C158.173 81.3 159.135 81.6127 159.741 82.238C160.348 82.854 160.651 83.6427 160.651 84.604V89H159.223V84.59C159.223 83.1527 158.435 82.434 156.857 82.434C156.027 82.434 155.373 82.6953 154.897 83.218C154.421 83.7407 154.183 84.4873 154.183 85.458C154.183 86.354 154.384 87.0167 154.785 87.446C155.187 87.8753 155.784 88.09 156.577 88.09C156.932 88.09 157.259 88.0433 157.557 87.95V89.056C157.231 89.1587 156.825 89.21 156.339 89.21ZM165.045 89.21C164.531 89.21 164.009 89.1493 163.477 89.028C162.945 88.916 162.529 88.748 162.231 88.524V87.376C162.632 87.6187 163.071 87.8053 163.547 87.936C164.032 88.0573 164.494 88.118 164.933 88.118C165.549 88.118 165.992 88.048 166.263 87.908C166.533 87.7587 166.669 87.5067 166.669 87.152C166.669 86.9093 166.603 86.7133 166.473 86.564C166.342 86.4147 166.141 86.284 165.871 86.172C165.609 86.06 165.194 85.92 164.625 85.752C163.803 85.5 163.192 85.206 162.791 84.87C162.389 84.5247 162.189 84.0487 162.189 83.442C162.189 82.7513 162.455 82.224 162.987 81.86C163.519 81.4867 164.247 81.3 165.171 81.3C165.647 81.3 166.104 81.356 166.543 81.468C166.991 81.5707 167.359 81.7107 167.649 81.888V83.064C167.331 82.868 166.967 82.714 166.557 82.602C166.146 82.49 165.726 82.434 165.297 82.434C164.177 82.434 163.617 82.77 163.617 83.442C163.617 83.694 163.691 83.8947 163.841 84.044C163.999 84.1933 164.205 84.3193 164.457 84.422C164.718 84.5153 165.152 84.6507 165.759 84.828C166.356 85.0053 166.823 85.1967 167.159 85.402C167.495 85.6073 167.733 85.85 167.873 86.13C168.013 86.41 168.083 86.7553 168.083 87.166C168.083 87.782 167.831 88.2767 167.327 88.65C166.823 89.0233 166.062 89.21 165.045 89.21ZM166.063 92.794C165.484 92.794 165.036 92.6727 164.719 92.43C164.392 92.1873 164.229 91.8607 164.229 91.45V91.072C164.229 90.9413 164.21 90.8527 164.173 90.806C164.136 90.7687 164.056 90.75 163.935 90.75H163.459V89.798H164.691C164.943 89.798 165.116 89.854 165.209 89.966C165.302 90.078 165.349 90.26 165.349 90.512V91.31C165.349 91.7207 165.573 91.926 166.021 91.926C166.46 91.926 166.679 91.7207 166.679 91.31V89.798H167.799V91.408C167.799 91.8187 167.65 92.15 167.351 92.402C167.043 92.6633 166.614 92.794 166.063 92.794ZM173.217 89.21C172.489 89.21 171.854 89.0793 171.313 88.818C170.772 88.5567 170.352 88.1927 170.053 87.726C169.764 87.25 169.619 86.7087 169.619 86.102V81.51H171.047V86.074C171.047 86.6993 171.229 87.194 171.593 87.558C171.966 87.9127 172.508 88.09 173.217 88.09C173.917 88.09 174.449 87.9127 174.813 87.558C175.186 87.194 175.373 86.6993 175.373 86.074V79.004H176.801V86.102C176.801 86.7087 176.652 87.25 176.353 87.726C176.064 88.1927 175.648 88.5567 175.107 88.818C174.566 89.0793 173.936 89.21 173.217 89.21ZM178.335 87.81H178.923C179.175 87.81 179.348 87.7633 179.441 87.67C179.534 87.5673 179.581 87.3807 179.581 87.11V84.338L178.601 83.204C179.077 82.588 179.637 82.1167 180.281 81.79C180.925 81.4633 181.686 81.3 182.563 81.3C183.674 81.3 184.528 81.5567 185.125 82.07C185.722 82.574 186.021 83.2833 186.021 84.198V89H184.593V84.31C184.593 83.666 184.42 83.1947 184.075 82.896C183.73 82.588 183.221 82.434 182.549 82.434C182.036 82.434 181.588 82.5087 181.205 82.658C180.832 82.798 180.486 83.0313 180.169 83.358L181.009 84.324V87.53C181.009 87.9873 180.883 88.3467 180.631 88.608C180.388 88.8693 180.034 89 179.567 89H178.335V87.81ZM190.476 84.156C190.476 83.5587 190.354 83.1247 190.112 82.854C189.869 82.574 189.44 82.434 188.824 82.434C188.226 82.434 187.666 82.5647 187.144 82.826V81.706C187.368 81.594 187.657 81.5007 188.012 81.426C188.376 81.342 188.735 81.3 189.09 81.3C190.032 81.3 190.737 81.5567 191.204 82.07C191.67 82.574 191.904 83.302 191.904 84.254V89H190.476V84.156ZM193.303 81.51H194.731L196.089 86.998L197.713 81.51H198.805L200.415 86.998L201.787 81.51H203.215L201.129 89H199.925L198.259 83.372L196.579 89H195.375L193.303 81.51Z" fill="#336DF2"/>
<path d="M214.91 81.51H216.338V84.814L219.964 81.51H221.63L219.586 83.372C220.351 83.568 220.883 83.8807 221.182 84.31C221.49 84.7393 221.644 85.3133 221.644 86.032V89H220.216V86.116C220.216 85.556 220.099 85.1313 219.866 84.842C219.642 84.5527 219.25 84.3473 218.69 84.226L216.338 86.368V89H214.91V81.51ZM226.045 89.21C225.531 89.21 225.009 89.1493 224.477 89.028C223.945 88.916 223.529 88.748 223.231 88.524V87.376C223.632 87.6187 224.071 87.8053 224.547 87.936C225.032 88.0573 225.494 88.118 225.933 88.118C226.549 88.118 226.992 88.048 227.263 87.908C227.533 87.7587 227.669 87.5067 227.669 87.152C227.669 86.9093 227.603 86.7133 227.473 86.564C227.342 86.4147 227.141 86.284 226.871 86.172C226.609 86.06 226.194 85.92 225.625 85.752C224.803 85.5 224.192 85.206 223.791 84.87C223.389 84.5247 223.189 84.0487 223.189 83.442C223.189 82.7513 223.455 82.224 223.987 81.86C224.519 81.4867 225.247 81.3 226.171 81.3C226.647 81.3 227.104 81.356 227.543 81.468C227.991 81.5707 228.359 81.7107 228.649 81.888V83.064C228.331 82.868 227.967 82.714 227.557 82.602C227.146 82.49 226.726 82.434 226.297 82.434C225.177 82.434 224.617 82.77 224.617 83.442C224.617 83.694 224.691 83.8947 224.841 84.044C224.999 84.1933 225.205 84.3193 225.457 84.422C225.718 84.5153 226.152 84.6507 226.759 84.828C227.356 85.0053 227.823 85.1967 228.159 85.402C228.495 85.6073 228.733 85.85 228.873 86.13C229.013 86.41 229.083 86.7553 229.083 87.166C229.083 87.782 228.831 88.2767 228.327 88.65C227.823 89.0233 227.062 89.21 226.045 89.21ZM222.751 79.466H225.565V77.94H226.615V79.466H227.749V77.94H228.785V80.404H222.751V79.466ZM233.391 89.21C232.812 89.21 232.252 89.14 231.711 89C231.17 88.8693 230.712 88.6827 230.339 88.44V84.716H233.447V85.864H231.767V87.726C232.168 87.9687 232.71 88.09 233.391 88.09C234.287 88.09 234.968 87.8427 235.435 87.348C235.911 86.8533 236.149 86.1347 236.149 85.192C236.149 84.2493 235.906 83.554 235.421 83.106C234.945 82.658 234.161 82.434 233.069 82.434C232.574 82.434 232.089 82.4853 231.613 82.588C231.137 82.6813 230.736 82.8353 230.409 83.05V81.916C230.773 81.7107 231.202 81.5567 231.697 81.454C232.192 81.3513 232.724 81.3 233.293 81.3C234.693 81.3 235.762 81.6407 236.499 82.322C237.236 83.0033 237.605 83.96 237.605 85.192C237.605 86.4333 237.236 87.4133 236.499 88.132C235.771 88.8507 234.735 89.21 233.391 89.21ZM246.768 89.21C245.937 89.21 245.275 89.0047 244.78 88.594C244.295 88.174 244.052 87.5813 244.052 86.816C244.052 86.06 244.323 85.458 244.864 85.01C245.415 84.562 246.157 84.338 247.09 84.338C248.014 84.338 248.845 84.5107 249.582 84.856V84.282C249.582 83.638 249.405 83.1713 249.05 82.882C248.705 82.5833 248.126 82.434 247.314 82.434C246.866 82.434 246.427 82.476 245.998 82.56C245.569 82.644 245.195 82.7607 244.878 82.91V81.79C245.167 81.65 245.559 81.5333 246.054 81.44C246.558 81.3467 247.048 81.3 247.524 81.3C248.691 81.3 249.563 81.566 250.142 82.098C250.721 82.63 251.01 83.3487 251.01 84.254V89H249.582V85.99C248.901 85.6447 248.121 85.472 247.244 85.472C246.637 85.472 246.189 85.584 245.9 85.808C245.62 86.032 245.48 86.368 245.48 86.816C245.48 87.6653 246.026 88.09 247.118 88.09C247.454 88.09 247.748 88.0433 248 87.95V89.056C247.664 89.1587 247.253 89.21 246.768 89.21ZM255.468 84.156C255.468 83.5587 255.346 83.1247 255.104 82.854C254.861 82.574 254.432 82.434 253.816 82.434C253.218 82.434 252.658 82.5647 252.136 82.826V81.706C252.36 81.594 252.649 81.5007 253.004 81.426C253.368 81.342 253.727 81.3 254.082 81.3C255.024 81.3 255.729 81.5567 256.196 82.07C256.662 82.574 256.896 83.302 256.896 84.254V89H255.468V84.156ZM259.135 84.338L258.435 83.204C258.929 82.5787 259.494 82.1073 260.129 81.79C260.763 81.4633 261.515 81.3 262.383 81.3C263.503 81.3 264.361 81.5567 264.959 82.07C265.556 82.574 265.855 83.2833 265.855 84.198V89H264.427V84.31C264.427 83.666 264.254 83.1947 263.909 82.896C263.573 82.588 263.064 82.434 262.383 82.434C261.869 82.434 261.417 82.5133 261.025 82.672C260.633 82.8213 260.278 83.064 259.961 83.4L260.563 84.338V89H259.135V84.338ZM269.07 89C268.612 89 268.262 88.874 268.02 88.622C267.786 88.3607 267.67 87.9967 267.67 87.53V81.51H269.098V87.138C269.098 87.39 269.149 87.5673 269.252 87.67C269.354 87.7633 269.532 87.81 269.784 87.81H270.288V89H269.07ZM272.668 89C272.22 89 271.874 88.8693 271.632 88.608C271.389 88.3467 271.268 87.9873 271.268 87.53V81.51H272.696V87.138C272.696 87.39 272.747 87.5673 272.85 87.67C272.962 87.7633 273.144 87.81 273.396 87.81H273.9V89H272.668ZM277.871 89.21C277.041 89.21 276.378 89.0047 275.883 88.594C275.398 88.174 275.155 87.5813 275.155 86.816C275.155 86.06 275.426 85.458 275.967 85.01C276.518 84.562 277.26 84.338 278.193 84.338C279.117 84.338 279.948 84.5107 280.685 84.856V84.282C280.685 83.638 280.508 83.1713 280.153 82.882C279.808 82.5833 279.229 82.434 278.417 82.434C277.969 82.434 277.531 82.476 277.101 82.56C276.672 82.644 276.299 82.7607 275.981 82.91V81.79C276.271 81.65 276.663 81.5333 277.157 81.44C277.661 81.3467 278.151 81.3 278.627 81.3C279.794 81.3 280.667 81.566 281.245 82.098C281.824 82.63 282.113 83.3487 282.113 84.254V89H280.685V85.99C280.004 85.6447 279.225 85.472 278.347 85.472C277.741 85.472 277.293 85.584 277.003 85.808C276.723 86.032 276.583 86.368 276.583 86.816C276.583 87.6653 277.129 88.09 278.221 88.09C278.557 88.09 278.851 88.0433 279.103 87.95V89.056C278.767 89.1587 278.357 89.21 277.871 89.21ZM284.779 84.45C284.369 84.45 284.079 84.3567 283.911 84.17C283.743 83.9833 283.659 83.6987 283.659 83.316V82.518H284.947V83.05C284.947 83.1993 284.98 83.3067 285.045 83.372C285.111 83.428 285.227 83.456 285.395 83.456H287.033V84.45H284.779ZM284.779 88.272C284.369 88.272 284.079 88.1787 283.911 87.992C283.743 87.8053 283.659 87.5207 283.659 87.138V86.34H284.947V86.872C284.947 87.0213 284.98 87.1287 285.045 87.194C285.111 87.25 285.227 87.278 285.395 87.278H287.033V88.272H284.779ZM291.024 89.21C289.848 89.21 288.938 89 288.294 88.58V87.432C288.919 87.8707 289.736 88.09 290.744 88.09C291.659 88.09 292.368 87.852 292.872 87.376C293.385 86.9 293.642 86.1953 293.642 85.262C293.642 84.3287 293.385 83.624 292.872 83.148C292.368 82.672 291.659 82.434 290.744 82.434C289.764 82.434 288.957 82.6533 288.322 83.092V81.93C288.975 81.51 289.876 81.3 291.024 81.3C292.284 81.3 293.278 81.65 294.006 82.35C294.734 83.0407 295.098 84.0113 295.098 85.262C295.098 86.5127 294.734 87.4833 294.006 88.174C293.278 88.8647 292.284 89.21 291.024 89.21ZM299.272 84.156C299.272 83.5587 299.151 83.1247 298.908 82.854C298.666 82.574 298.236 82.434 297.62 82.434C297.023 82.434 296.463 82.5647 295.94 82.826V81.706C296.164 81.594 296.454 81.5007 296.808 81.426C297.172 81.342 297.532 81.3 297.886 81.3C298.829 81.3 299.534 81.5567 300 82.07C300.467 82.574 300.7 83.302 300.7 84.254V89H299.272V84.156ZM302.239 82.448H303.667L305.445 87.88C306.323 87.88 306.999 87.6373 307.475 87.152C307.951 86.6667 308.189 85.9807 308.189 85.094C308.189 84.2167 308.026 83.554 307.699 83.106C307.373 82.658 306.85 82.434 306.131 82.434C305.795 82.434 305.469 82.476 305.151 82.56V81.454C305.525 81.3513 305.931 81.3 306.369 81.3C307.433 81.3 308.245 81.636 308.805 82.308C309.365 82.98 309.645 83.9087 309.645 85.094C309.645 85.906 309.468 86.606 309.113 87.194C308.768 87.782 308.297 88.23 307.699 88.538C307.102 88.846 306.439 89 305.711 89H304.367L302.239 82.448ZM311.187 81.51H312.559V82.518C312.923 82.1073 313.348 81.804 313.833 81.608C314.328 81.4027 314.827 81.3 315.331 81.3C316.246 81.3 316.946 81.552 317.431 82.056C317.917 82.56 318.159 83.2087 318.159 84.002V89H316.731V84.072C316.731 83.5493 316.587 83.148 316.297 82.868C316.008 82.5787 315.56 82.434 314.953 82.434C313.936 82.434 313.157 82.8587 312.615 83.708V89H311.187V81.51ZM312.096 79.438H316.842V77.94H318.144V80.404H312.096V79.438ZM316.856 75.616H318.144V77.478H316.856V75.616ZM322.876 89.21C321.962 89.21 321.248 88.9533 320.734 88.44C320.23 87.9267 319.978 87.264 319.978 86.452V81.51H321.406V86.396C321.406 86.956 321.56 87.3807 321.868 87.67C322.186 87.95 322.648 88.09 323.254 88.09C324.216 88.09 324.972 87.6607 325.522 86.802V81.51H326.95V89H325.564V87.992C324.864 88.804 323.968 89.21 322.876 89.21ZM320.887 79.438H325.633V77.94H326.935V80.404H320.887V79.438ZM325.647 75.616H326.935V77.478H325.647V75.616Z" fill="#646C80"/>
<path d="M145.661 103.612H148.889C149.793 103.612 150.505 103.84 151.025 104.296C151.553 104.744 151.817 105.384 151.817 106.216C151.817 107.064 151.557 107.708 151.037 108.148C150.517 108.58 149.801 108.796 148.889 108.796H146.885V112H145.661V103.612ZM148.757 107.776C149.317 107.776 149.761 107.66 150.089 107.428C150.417 107.196 150.581 106.792 150.581 106.216C150.581 105.64 150.417 105.236 150.089 105.004C149.761 104.764 149.317 104.644 148.757 104.644H146.885V107.776H148.757ZM152.891 103.612H154.055L158.327 109.936V103.612H159.563V112H158.387L154.115 105.676V112H152.891V103.612ZM165.318 112.18C164.454 112.18 163.686 112 163.014 111.64C162.342 111.28 161.818 110.772 161.442 110.116C161.066 109.452 160.878 108.684 160.878 107.812C160.878 106.94 161.066 106.172 161.442 105.508C161.818 104.844 162.342 104.332 163.014 103.972C163.686 103.612 164.454 103.432 165.318 103.432C166.478 103.432 167.442 103.72 168.21 104.296V105.472C167.514 104.864 166.586 104.56 165.426 104.56C164.794 104.56 164.226 104.692 163.722 104.956C163.218 105.22 162.822 105.6 162.534 106.096C162.254 106.584 162.114 107.156 162.114 107.812C162.114 108.468 162.254 109.044 162.534 109.54C162.814 110.036 163.202 110.416 163.698 110.68C164.194 110.944 164.754 111.076 165.378 111.076C166.106 111.076 166.702 110.928 167.166 110.632V108.436H165.57V107.44H168.39V111.28C168.014 111.592 167.57 111.82 167.058 111.964C166.554 112.108 165.974 112.18 165.318 112.18ZM170.44 111.364H171.712L170.572 113.776H169.468L170.44 111.364ZM178.269 112.18C178.045 112.18 177.809 112.16 177.561 112.12C177.313 112.08 177.125 112.032 176.997 111.976V110.932C177.117 110.98 177.269 111.02 177.453 111.052C177.645 111.084 177.825 111.1 177.993 111.1C178.817 111.1 179.229 110.7 179.229 109.9V103.612H180.453V109.984C180.453 110.672 180.257 111.212 179.865 111.604C179.473 111.988 178.941 112.18 178.269 112.18ZM181.954 103.612H185.182C186.086 103.612 186.798 103.84 187.318 104.296C187.846 104.744 188.11 105.384 188.11 106.216C188.11 107.064 187.85 107.708 187.33 108.148C186.81 108.58 186.094 108.796 185.182 108.796H183.178V112H181.954V103.612ZM185.05 107.776C185.61 107.776 186.054 107.66 186.382 107.428C186.71 107.196 186.874 106.792 186.874 106.216C186.874 105.64 186.71 105.236 186.382 105.004C186.054 104.764 185.61 104.644 185.05 104.644H183.178V107.776H185.05ZM193.08 112.18C192.216 112.18 191.448 112 190.776 111.64C190.104 111.28 189.58 110.772 189.204 110.116C188.828 109.452 188.64 108.684 188.64 107.812C188.64 106.94 188.828 106.172 189.204 105.508C189.58 104.844 190.104 104.332 190.776 103.972C191.448 103.612 192.216 103.432 193.08 103.432C194.24 103.432 195.204 103.72 195.972 104.296V105.472C195.276 104.864 194.348 104.56 193.188 104.56C192.556 104.56 191.988 104.692 191.484 104.956C190.98 105.22 190.584 105.6 190.296 106.096C190.016 106.584 189.876 107.156 189.876 107.812C189.876 108.468 190.016 109.044 190.296 109.54C190.576 110.036 190.964 110.416 191.46 110.68C191.956 110.944 192.516 111.076 193.14 111.076C193.868 111.076 194.464 110.928 194.928 110.632V108.436H193.332V107.44H196.152V111.28C195.776 111.592 195.332 111.82 194.82 111.964C194.316 112.108 193.736 112.18 193.08 112.18ZM204.551 112.18C203.975 112.18 203.475 112.08 203.051 111.88C202.627 111.68 202.299 111.4 202.067 111.04C201.843 110.672 201.731 110.252 201.731 109.78V109.372C201.731 109.1 201.787 108.852 201.899 108.628C202.011 108.404 202.175 108.144 202.391 107.848C202.543 107.648 202.655 107.484 202.727 107.356C202.799 107.22 202.835 107.092 202.835 106.972C202.835 106.82 202.795 106.712 202.715 106.648C202.643 106.584 202.519 106.552 202.343 106.552H201.671V105.58H202.931C203.283 105.58 203.559 105.684 203.759 105.892C203.967 106.092 204.071 106.36 204.071 106.696C204.071 106.928 204.023 107.144 203.927 107.344C203.831 107.536 203.687 107.772 203.495 108.052C203.303 108.34 203.163 108.572 203.075 108.748C202.995 108.924 202.955 109.116 202.955 109.324V109.768C202.955 110.232 203.087 110.592 203.351 110.848C203.623 111.096 204.023 111.22 204.551 111.22C205.079 111.22 205.471 111.092 205.727 110.836C205.983 110.572 206.111 110.204 206.111 109.732V105.58H207.335V109.528C207.335 110.352 207.091 111 206.603 111.472C206.115 111.944 205.431 112.18 204.551 112.18ZM211.379 112.18C210.595 112.18 209.983 111.96 209.543 111.52C209.111 111.08 208.895 110.512 208.895 109.816V105.58H210.119V109.768C210.119 110.248 210.251 110.612 210.515 110.86C210.787 111.1 211.183 111.22 211.703 111.22C212.527 111.22 213.175 110.852 213.647 110.116V105.58H214.871V112H213.683V111.136C213.083 111.832 212.315 112.18 211.379 112.18ZM218.686 107.848C218.686 107.336 218.582 106.964 218.374 106.732C218.166 106.492 217.798 106.372 217.27 106.372C216.758 106.372 216.278 106.484 215.83 106.708V105.748C216.022 105.652 216.27 105.572 216.574 105.508C216.886 105.436 217.194 105.4 217.498 105.4C218.306 105.4 218.91 105.62 219.31 106.06C219.71 106.492 219.91 107.116 219.91 107.932V112H218.686V107.848ZM224.313 112.18C223.353 112.18 222.597 111.908 222.045 111.364C221.501 110.82 221.229 110.02 221.229 108.964C221.229 108.228 221.369 107.592 221.649 107.056C221.937 106.52 222.345 106.112 222.873 105.832C223.401 105.544 224.029 105.4 224.757 105.4C225.885 105.4 226.709 105.668 227.229 106.204C227.749 106.732 228.009 107.408 228.009 108.232V112H226.785V108.22C226.785 106.988 226.109 106.372 224.757 106.372C224.045 106.372 223.485 106.596 223.077 107.044C222.669 107.492 222.465 108.132 222.465 108.964C222.465 109.732 222.637 110.3 222.981 110.668C223.325 111.036 223.837 111.22 224.517 111.22C224.821 111.22 225.101 111.18 225.357 111.1V112.048C225.077 112.136 224.729 112.18 224.313 112.18ZM231.175 111.988C230.783 111.988 230.483 111.88 230.275 111.664C230.075 111.44 229.975 111.128 229.975 110.728V106.18C229.975 105.644 230.051 105.204 230.203 104.86C230.355 104.516 230.611 104.232 230.971 104.008H228.787V102.976H232.567V103.96C232.087 104.168 231.739 104.436 231.523 104.764C231.307 105.092 231.199 105.548 231.199 106.132V110.38C231.199 110.596 231.243 110.748 231.331 110.836C231.419 110.916 231.571 110.956 231.787 110.956H232.219V111.988H231.175ZM237.02 112.18C236.58 112.18 236.16 112.092 235.76 111.916C235.368 111.74 235.016 111.48 234.704 111.136V112H233.528V105.58H234.752V110.116C235.224 110.852 235.872 111.22 236.696 111.22C237.216 111.22 237.608 111.1 237.872 110.86C238.144 110.612 238.28 110.248 238.28 109.768V105.58H239.504V109.816C239.504 110.512 239.284 111.08 238.844 111.52C238.404 111.96 237.796 112.18 237.02 112.18ZM238.315 102.628H239.527V104.632H238.315V102.628ZM242.263 112C241.871 112 241.571 111.892 241.363 111.676C241.163 111.452 241.063 111.14 241.063 110.74V105.58H242.287V110.404C242.287 110.62 242.331 110.772 242.419 110.86C242.507 110.94 242.659 110.98 242.875 110.98H243.307V112H242.263ZM244.986 108.004L244.386 107.032C244.81 106.496 245.294 106.092 245.838 105.82C246.382 105.54 247.026 105.4 247.77 105.4C248.73 105.4 249.466 105.62 249.978 106.06C250.49 106.492 250.746 107.1 250.746 107.884V112H249.522V107.98C249.522 107.428 249.374 107.024 249.078 106.768C248.79 106.504 248.354 106.372 247.77 106.372C247.33 106.372 246.942 106.44 246.606 106.576C246.27 106.704 245.966 106.912 245.694 107.2L246.21 108.004V112H244.986V108.004ZM245.545 103.804H250.729V104.632H245.545V103.804ZM254.785 112.18C254.001 112.18 253.389 111.96 252.949 111.52C252.517 111.08 252.301 110.512 252.301 109.816V105.58H253.525V109.768C253.525 110.248 253.657 110.612 253.921 110.86C254.193 111.1 254.589 111.22 255.109 111.22C255.933 111.22 256.581 110.852 257.053 110.116V105.58H258.277V112H257.089V111.136C256.489 111.832 255.721 112.18 254.785 112.18ZM266.378 112.18C265.938 112.18 265.51 112.132 265.094 112.036C264.678 111.948 264.326 111.824 264.038 111.664V110.572C264.366 110.772 264.738 110.928 265.154 111.04C265.57 111.144 265.966 111.196 266.342 111.196C267.07 111.196 267.622 111.044 267.998 110.74C268.374 110.428 268.562 109.972 268.562 109.372C268.562 108.804 268.386 108.372 268.034 108.076C267.69 107.772 267.174 107.62 266.486 107.62C266.198 107.62 265.894 107.648 265.574 107.704C265.262 107.76 264.982 107.836 264.734 107.932L264.194 107.62L264.506 103.612H269.198V104.644H265.622L265.442 106.804C265.938 106.7 266.442 106.648 266.954 106.648C267.842 106.648 268.538 106.896 269.042 107.392C269.546 107.888 269.798 108.548 269.798 109.372C269.798 110.276 269.514 110.972 268.946 111.46C268.378 111.94 267.522 112.18 266.378 112.18ZM271.122 103.612H272.346L275.334 110.152L278.322 103.612H279.546V112H278.358V106.036L275.634 112H275.034L272.298 106.036V112H271.122V103.612ZM281.106 103.612H284.958C285.702 103.612 286.278 103.804 286.686 104.188C287.094 104.572 287.298 105.132 287.298 105.868C287.298 106.284 287.198 106.652 286.998 106.972C286.806 107.284 286.55 107.516 286.23 107.668C287.126 107.932 287.574 108.584 287.574 109.624C287.574 110.112 287.466 110.536 287.25 110.896C287.042 111.248 286.754 111.52 286.386 111.712C286.018 111.904 285.61 112 285.162 112H281.106V103.612ZM284.802 107.212C285.194 107.212 285.502 107.104 285.726 106.888C285.95 106.672 286.062 106.352 286.062 105.928C286.062 105.44 285.95 105.1 285.726 104.908C285.51 104.708 285.174 104.608 284.718 104.608H282.33V107.212H284.802ZM284.886 111.004C285.358 111.004 285.718 110.9 285.966 110.692C286.214 110.484 286.338 110.128 286.338 109.624C286.338 109.12 286.206 108.76 285.942 108.544C285.686 108.328 285.298 108.22 284.778 108.22H282.33V111.004H284.886Z" fill="#646C80"/>
<path d="M3.52938 163.18C2.95338 163.18 2.45338 163.08 2.02938 162.88C1.60538 162.68 1.27738 162.4 1.04538 162.04C0.821375 161.672 0.709375 161.252 0.709375 160.78V160.372C0.709375 160.1 0.765375 159.852 0.877375 159.628C0.989375 159.404 1.15338 159.144 1.36938 158.848C1.52138 158.648 1.63338 158.484 1.70538 158.356C1.77738 158.22 1.81338 158.092 1.81338 157.972C1.81338 157.82 1.77338 157.712 1.69337 157.648C1.62138 157.584 1.49738 157.552 1.32138 157.552H0.649375V156.58H1.90938C2.26138 156.58 2.53738 156.684 2.73738 156.892C2.94538 157.092 3.04938 157.36 3.04938 157.696C3.04938 157.928 3.00138 158.144 2.90538 158.344C2.80938 158.536 2.66538 158.772 2.47338 159.052C2.28138 159.34 2.14138 159.572 2.05338 159.748C1.97338 159.924 1.93338 160.116 1.93338 160.324V160.768C1.93338 161.232 2.06538 161.592 2.32938 161.848C2.60138 162.096 3.00138 162.22 3.52938 162.22C4.05738 162.22 4.44938 162.092 4.70538 161.836C4.96138 161.572 5.08938 161.204 5.08938 160.732V156.58H6.31338V160.528C6.31338 161.352 6.06938 162 5.58138 162.472C5.09338 162.944 4.40938 163.18 3.52938 163.18ZM10.3578 163.18C9.57375 163.18 8.96175 162.96 8.52175 162.52C8.08975 162.08 7.87375 161.512 7.87375 160.816V156.58H9.09775V160.768C9.09775 161.248 9.22975 161.612 9.49375 161.86C9.76575 162.1 10.1618 162.22 10.6818 162.22C11.5058 162.22 12.1538 161.852 12.6258 161.116V156.58H13.8498V163H12.6618V162.136C12.0618 162.832 11.2938 163.18 10.3578 163.18ZM17.6649 158.848C17.6649 158.336 17.5609 157.964 17.3529 157.732C17.1449 157.492 16.7769 157.372 16.2489 157.372C15.7369 157.372 15.2569 157.484 14.8089 157.708V156.748C15.0009 156.652 15.2489 156.572 15.5529 156.508C15.8649 156.436 16.1729 156.4 16.4769 156.4C17.2849 156.4 17.8889 156.62 18.2889 157.06C18.6889 157.492 18.8889 158.116 18.8889 158.932V163H17.6649V158.848ZM23.292 163.18C22.332 163.18 21.576 162.908 21.024 162.364C20.48 161.82 20.208 161.02 20.208 159.964C20.208 159.228 20.348 158.592 20.628 158.056C20.916 157.52 21.324 157.112 21.852 156.832C22.38 156.544 23.008 156.4 23.736 156.4C24.864 156.4 25.688 156.668 26.208 157.204C26.728 157.732 26.988 158.408 26.988 159.232V163H25.764V159.22C25.764 157.988 25.088 157.372 23.736 157.372C23.024 157.372 22.464 157.596 22.056 158.044C21.648 158.492 21.444 159.132 21.444 159.964C21.444 160.732 21.616 161.3 21.96 161.668C22.304 162.036 22.816 162.22 23.496 162.22C23.8 162.22 24.08 162.18 24.336 162.1V163.048C24.056 163.136 23.708 163.18 23.292 163.18ZM28.3056 161.98H28.8096C29.0256 161.98 29.1736 161.94 29.2536 161.86C29.3336 161.772 29.3736 161.612 29.3736 161.38V159.004L28.5336 158.032C28.9416 157.504 29.4216 157.1 29.9736 156.82C30.5256 156.54 31.1776 156.4 31.9296 156.4C32.8816 156.4 33.6136 156.62 34.1256 157.06C34.6376 157.492 34.8936 158.1 34.8936 158.884V163H33.6696V158.98C33.6696 158.428 33.5216 158.024 33.2256 157.768C32.9296 157.504 32.4936 157.372 31.9176 157.372C31.4776 157.372 31.0936 157.436 30.7656 157.564C30.4456 157.684 30.1496 157.884 29.8776 158.164L30.5976 158.992V161.74C30.5976 162.132 30.4896 162.44 30.2736 162.664C30.0656 162.888 29.7616 163 29.3616 163H28.3056V161.98ZM38.7118 158.848C38.7118 158.336 38.6078 157.964 38.3998 157.732C38.1918 157.492 37.8238 157.372 37.2958 157.372C36.7838 157.372 36.3038 157.484 35.8558 157.708V156.748C36.0478 156.652 36.2958 156.572 36.5998 156.508C36.9118 156.436 37.2198 156.4 37.5238 156.4C38.3318 156.4 38.9358 156.62 39.3358 157.06C39.7358 157.492 39.9358 158.116 39.9358 158.932V163H38.7118V158.848ZM41.1348 156.58H42.3588L43.5228 161.284L44.9148 156.58H45.8508L47.2308 161.284L48.4068 156.58H49.6308L47.8428 163H46.8108L45.3828 158.176L43.9428 163H42.9108L41.1348 156.58ZM50.8347 156.58H52.0107V157.444C52.3227 157.092 52.6867 156.832 53.1027 156.664C53.5267 156.488 53.9547 156.4 54.3867 156.4C55.1707 156.4 55.7707 156.616 56.1867 157.048C56.6027 157.48 56.8107 158.036 56.8107 158.716V163H55.5867V158.776C55.5867 158.328 55.4627 157.984 55.2147 157.744C54.9667 157.496 54.5827 157.372 54.0627 157.372C53.1907 157.372 52.5227 157.736 52.0587 158.464V163H50.8347V156.58ZM51.6138 154.804H55.6818V153.52H56.7978V155.632H51.6138V154.804ZM55.6938 151.528H56.7978V153.124H55.6938V151.528ZM59.5698 163C59.1778 163 58.8778 162.892 58.6698 162.676C58.4698 162.452 58.3698 162.14 58.3698 161.74V156.58H59.5938V161.404C59.5938 161.62 59.6378 161.772 59.7258 161.86C59.8138 161.94 59.9658 161.98 60.1818 161.98H60.6138V163H59.5698ZM62.6538 163C62.2698 163 61.9738 162.888 61.7658 162.664C61.5578 162.44 61.4538 162.132 61.4538 161.74V156.58H62.6778V161.404C62.6778 161.62 62.7218 161.772 62.8098 161.86C62.9058 161.94 63.0618 161.98 63.2778 161.98H63.7098V163H62.6538ZM67.5101 163.18C66.7261 163.18 66.1141 162.96 65.6741 162.52C65.2421 162.08 65.0261 161.512 65.0261 160.816V156.58H66.2501V160.768C66.2501 161.248 66.3821 161.612 66.6461 161.86C66.9181 162.1 67.3141 162.22 67.8341 162.22C68.6581 162.22 69.3061 161.852 69.7781 161.116V156.58H71.0021V163H69.8141V162.136C69.2141 162.832 68.4461 163.18 67.5101 163.18ZM73.2812 159.1C72.9293 159.1 72.6813 159.02 72.5373 158.86C72.3933 158.7 72.3213 158.456 72.3213 158.128V157.444H73.4253V157.9C73.4253 158.028 73.4533 158.12 73.5093 158.176C73.5653 158.224 73.6653 158.248 73.8093 158.248H75.2133V159.1H73.2812ZM73.2812 162.376C72.9293 162.376 72.6813 162.296 72.5373 162.136C72.3933 161.976 72.3213 161.732 72.3213 161.404V160.72H73.4253V161.176C73.4253 161.304 73.4533 161.396 73.5093 161.452C73.5653 161.5 73.6653 161.524 73.8093 161.524H75.2133V162.376H73.2812ZM79.0179 163.18C78.2339 163.18 77.6219 162.96 77.1819 162.52C76.7499 162.08 76.5339 161.512 76.5339 160.816V156.58H77.7579V160.768C77.7579 161.248 77.8899 161.612 78.1539 161.86C78.4259 162.1 78.8219 162.22 79.3419 162.22C80.1659 162.22 80.8139 161.852 81.2859 161.116V156.58H82.5099V163H81.3219V162.136C80.7219 162.832 79.9539 163.18 79.0179 163.18ZM81.7411 155.74C81.3811 155.74 81.0731 155.612 80.8171 155.356C80.5531 155.1 80.4211 154.792 80.4211 154.432C80.4211 154.064 80.5531 153.752 80.8171 153.496C81.0731 153.232 81.3811 153.1 81.7411 153.1C82.1011 153.1 82.4131 153.232 82.6771 153.496C82.9331 153.752 83.0611 154.064 83.0611 154.432C83.0611 154.792 82.9331 155.1 82.6771 155.356C82.4131 155.612 82.1011 155.74 81.7411 155.74ZM81.7411 154.996C81.8851 154.996 82.0131 154.94 82.1251 154.828C82.2291 154.708 82.2811 154.576 82.2811 154.432C82.2811 154.288 82.2291 154.16 82.1251 154.048C82.0131 153.936 81.8851 153.88 81.7411 153.88C81.5971 153.88 81.4731 153.936 81.3691 154.048C81.2571 154.16 81.2011 154.288 81.2011 154.432C81.2011 154.576 81.2571 154.708 81.3691 154.828C81.4731 154.94 81.5971 154.996 81.7411 154.996ZM86.3251 158.848C86.3251 158.336 86.2211 157.964 86.0131 157.732C85.8051 157.492 85.4371 157.372 84.9091 157.372C84.3971 157.372 83.9171 157.484 83.4691 157.708V156.748C83.6611 156.652 83.9091 156.572 84.2131 156.508C84.5251 156.436 84.8331 156.4 85.1371 156.4C85.9451 156.4 86.5491 156.62 86.9491 157.06C87.3491 157.492 87.5491 158.116 87.5491 158.932V163H86.3251V158.848ZM89.5281 158.548C89.3441 158.548 89.1881 158.484 89.0601 158.356C88.9321 158.228 88.8681 158.072 88.8681 157.888C88.8681 157.704 88.9321 157.548 89.0601 157.42C89.1881 157.284 89.3441 157.216 89.5281 157.216C89.7121 157.216 89.8681 157.284 89.9961 157.42C90.1241 157.548 90.1881 157.704 90.1881 157.888C90.1881 158.064 90.1241 158.22 89.9961 158.356C89.8681 158.484 89.7121 158.548 89.5281 158.548ZM89.5281 162.76C89.3441 162.76 89.1881 162.696 89.0601 162.568C88.9321 162.44 88.8681 162.284 88.8681 162.1C88.8681 161.916 88.9321 161.76 89.0601 161.632C89.1881 161.496 89.3441 161.428 89.5281 161.428C89.7121 161.428 89.8681 161.496 89.9961 161.632C90.1241 161.76 90.1881 161.916 90.1881 162.1C90.1881 162.276 90.1241 162.432 89.9961 162.568C89.8681 162.696 89.7121 162.76 89.5281 162.76ZM97.5239 155.932L95.7119 157.24V156.076L97.6919 154.612H98.7479V163H97.5239V155.932ZM103.911 160.936H99.8313V160.156L103.899 154.612H105.147V159.976H106.443V160.936H105.147V163H103.911V160.936ZM104.055 159.976V156.076L101.211 159.976H104.055ZM111.118 160.936H107.038V160.156L111.106 154.612H112.354V159.976H113.65V160.936H112.354V163H111.118V160.936ZM111.262 159.976V156.076L108.418 159.976H111.262ZM117.977 163.18C117.257 163.18 116.633 163.004 116.105 162.652C115.585 162.3 115.185 161.796 114.905 161.14C114.625 160.484 114.485 159.708 114.485 158.812C114.485 157.916 114.621 157.14 114.893 156.484C115.173 155.82 115.573 155.312 116.093 154.96C116.621 154.608 117.249 154.432 117.977 154.432C118.705 154.432 119.329 154.608 119.849 154.96C120.377 155.312 120.777 155.82 121.049 156.484C121.329 157.14 121.469 157.916 121.469 158.812C121.469 159.708 121.329 160.484 121.049 161.14C120.769 161.796 120.365 162.3 119.837 162.652C119.317 163.004 118.697 163.18 117.977 163.18ZM117.977 162.1C118.689 162.1 119.245 161.808 119.645 161.224C120.053 160.632 120.257 159.832 120.257 158.824C120.257 157.816 120.057 157.016 119.657 156.424C119.257 155.832 118.697 155.536 117.977 155.536C117.257 155.536 116.697 155.832 116.297 156.424C115.897 157.016 115.697 157.816 115.697 158.824C115.697 159.832 115.897 160.632 116.297 161.224C116.705 161.808 117.265 162.1 117.977 162.1ZM129.461 159.988L127.205 157.24H128.585L130.145 159.148L131.717 157.24H133.097L130.841 159.988L133.313 163H131.945L130.145 160.828L128.357 163H126.989L129.461 159.988ZM138.837 162.196L140.649 160.456C140.809 160.296 141.033 160.088 141.321 159.832C141.777 159.416 142.125 159.08 142.365 158.824C142.605 158.568 142.801 158.296 142.953 158.008C143.105 157.712 143.181 157.396 143.181 157.06C143.181 156.564 143.037 156.188 142.749 155.932C142.461 155.668 142.041 155.536 141.489 155.536C141.113 155.536 140.725 155.604 140.325 155.74C139.933 155.876 139.565 156.076 139.221 156.34V155.164C139.893 154.676 140.713 154.432 141.681 154.432C142.545 154.432 143.217 154.664 143.697 155.128C144.177 155.584 144.417 156.208 144.417 157C144.417 157.384 144.333 157.752 144.165 158.104C144.005 158.456 143.777 158.804 143.481 159.148C143.185 159.484 142.785 159.896 142.281 160.384L140.649 161.98H144.729V163H138.837V162.196ZM145.81 162.196L147.622 160.456C147.782 160.296 148.006 160.088 148.294 159.832C148.75 159.416 149.098 159.08 149.338 158.824C149.578 158.568 149.774 158.296 149.926 158.008C150.078 157.712 150.154 157.396 150.154 157.06C150.154 156.564 150.01 156.188 149.722 155.932C149.434 155.668 149.014 155.536 148.462 155.536C148.086 155.536 147.698 155.604 147.298 155.74C146.906 155.876 146.538 156.076 146.194 156.34V155.164C146.866 154.676 147.686 154.432 148.654 154.432C149.518 154.432 150.19 154.664 150.67 155.128C151.15 155.584 151.39 156.208 151.39 157C151.39 157.384 151.306 157.752 151.138 158.104C150.978 158.456 150.75 158.804 150.454 159.148C150.158 159.484 149.758 159.896 149.254 160.384L147.622 161.98H151.702V163H145.81V162.196ZM155.122 163.18C154.682 163.18 154.254 163.132 153.838 163.036C153.422 162.948 153.07 162.824 152.782 162.664V161.572C153.11 161.772 153.482 161.928 153.898 162.04C154.314 162.144 154.71 162.196 155.086 162.196C155.814 162.196 156.366 162.044 156.742 161.74C157.118 161.428 157.306 160.972 157.306 160.372C157.306 159.804 157.13 159.372 156.778 159.076C156.434 158.772 155.918 158.62 155.23 158.62C154.942 158.62 154.638 158.648 154.318 158.704C154.006 158.76 153.726 158.836 153.478 158.932L152.938 158.62L153.25 154.612H157.942V155.644H154.366L154.186 157.804C154.682 157.7 155.186 157.648 155.698 157.648C156.586 157.648 157.282 157.896 157.786 158.392C158.29 158.888 158.542 159.548 158.542 160.372C158.542 161.276 158.258 161.972 157.69 162.46C157.122 162.94 156.266 163.18 155.122 163.18ZM164.307 154.612H167.535C168.439 154.612 169.151 154.84 169.671 155.296C170.199 155.744 170.463 156.384 170.463 157.216C170.463 158.064 170.203 158.708 169.683 159.148C169.163 159.58 168.447 159.796 167.535 159.796H165.531V163H164.307V154.612ZM167.403 158.776C167.963 158.776 168.407 158.66 168.735 158.428C169.063 158.196 169.227 157.792 169.227 157.216C169.227 156.64 169.063 156.236 168.735 156.004C168.407 155.764 167.963 155.644 167.403 155.644H165.531V158.776H167.403ZM173.786 158.74L170.762 154.612H172.166L174.494 157.78L176.822 154.612H178.226L175.19 158.74L178.334 163H176.93L174.494 159.688L172.058 163H170.654L173.786 158.74Z" fill="#646C80"/>
</svg>
