<svg width="28" height="27" viewBox="0 0 28 27" fill="none" xmlns="http://www.w3.org/2000/svg">
<path d="M18.375 26.625H15.4583V23.7083H18.375V26.625ZM15.4583 16.4167H12.5417V23.7083H15.4583V16.4167ZM27.125 13.5H24.2083V19.3333H27.125V13.5ZM24.2083 10.5833H21.2917V13.5H24.2083V10.5833ZM6.70833 13.5H3.79167V16.4167H6.70833V13.5ZM3.79167 10.5833H0.875V13.5H3.79167V10.5833ZM14 3.29167H16.9167V0.375H14V3.29167ZM3.0625 2.5625V6.9375H7.4375V2.5625H3.0625ZM9.625 9.125H0.875V0.375H9.625V9.125ZM3.0625 20.0625V24.4375H7.4375V20.0625H3.0625ZM9.625 26.625H0.875V17.875H9.625V26.625ZM20.5625 2.5625V6.9375H24.9375V2.5625H20.5625ZM27.125 9.125H18.375V0.375H27.125V9.125ZM24.2083 23.7083V19.3333H18.375V22.25H21.2917V26.625H27.125V23.7083H24.2083ZM21.2917 13.5H15.4583V16.4167H21.2917V13.5ZM15.4583 10.5833H6.70833V13.5H9.625V16.4167H12.5417V13.5H15.4583V10.5833ZM16.9167 9.125V6.20833H14V3.29167H11.0833V9.125H16.9167ZM6.34375 3.65625H4.15625V5.84375H6.34375V3.65625ZM6.34375 21.1562H4.15625V23.3438H6.34375V21.1562ZM23.8438 3.65625H21.6562V5.84375H23.8438V3.65625Z" fill="#B3B8C4"/>
</svg>
